<svg width="141" height="48" viewBox="0 0 141 48" fill="none" xmlns="http://www.w3.org/2000/svg">
<path d="M76.7724 29.392V36.3168C76.7724 36.406 76.737 36.4915 76.674 36.5545C76.6111 36.6176 76.5257 36.653 76.4366 36.653H75.6443C75.2068 36.6525 74.7873 36.4783 74.478 36.1686C74.1686 35.8588 73.9946 35.4388 73.9942 35.0008V27.2759C74.0037 26.5708 73.8107 25.8778 73.4381 25.2795C73.0655 24.6811 72.529 24.2026 71.8925 23.9008C71.4582 23.7015 70.9861 23.5982 70.5084 23.5982C70.0307 23.5982 69.5586 23.7015 69.1244 23.9008C68.4849 24.2002 67.9452 24.6778 67.5698 25.2764C67.1943 25.8749 66.9992 26.5691 67.0075 27.2759V36.3168C67.0075 36.406 66.9722 36.4915 66.9092 36.5545C66.8462 36.6176 66.7609 36.653 66.6718 36.653H64.5567C64.4676 36.653 64.3822 36.6176 64.3193 36.5545C64.2563 36.4915 64.2209 36.406 64.2209 36.3168V22.4806C64.2209 22.3914 64.2563 22.3059 64.3193 22.2429C64.3822 22.1798 64.4676 22.1444 64.5567 22.1444H65.3457C65.7832 22.1449 66.2026 22.3191 66.512 22.6288C66.8214 22.9386 66.9953 23.3586 66.9958 23.7966V24.6068C68.0198 23.0941 69.5138 22.1394 71.1925 22.1394C72.2106 22.1492 73.1971 22.4948 73.9992 23.1226C75.6577 24.3849 76.7724 26.7212 76.7724 29.392Z" fill="#057B83"/>
<path d="M95.2714 23.8084V26.4035C94.4018 23.8992 92.4747 22.1562 90.2354 22.1562C87.1802 22.1562 84.7058 25.4018 84.7058 29.4054C84.7058 33.4091 87.1802 36.658 90.2354 36.658C92.4713 36.658 94.3985 34.9151 95.2714 32.4073V39.2431C95.2714 39.4601 95.314 39.6749 95.397 39.8754C95.4799 40.0758 95.6015 40.258 95.7547 40.4114C95.9079 40.5648 96.0898 40.6865 96.29 40.7695C96.4902 40.8526 96.7048 40.8953 96.9215 40.8953H97.7138C97.8029 40.8953 97.8883 40.8599 97.9512 40.7968C98.0142 40.7338 98.0496 40.6483 98.0496 40.5591V22.4856C98.0496 22.3965 98.0142 22.311 97.9512 22.2479C97.8883 22.1849 97.8029 22.1494 97.7138 22.1494H96.9215C96.7042 22.1494 96.4891 22.1924 96.2885 22.2759C96.0878 22.3593 95.9056 22.4816 95.7523 22.6358C95.599 22.7899 95.4776 22.9728 95.395 23.174C95.3125 23.3753 95.2705 23.5909 95.2714 23.8084ZM91.2426 34.6041C89.161 34.6041 87.4739 32.288 87.4739 29.429C87.4739 26.5699 89.1526 24.2538 91.2426 24.2538C93.3325 24.2538 95.0095 26.5716 95.0095 29.429C95.0095 32.2863 93.3291 34.6024 91.2493 34.6024L91.2426 34.6041Z" fill="#057B83"/>
<path d="M61.3857 22.5007V36.3152C61.3857 36.4043 61.3503 36.4898 61.2873 36.5528C61.2244 36.6159 61.139 36.6513 61.0499 36.6513H58.9449C58.8558 36.6513 58.7704 36.6159 58.7075 36.5528C58.6445 36.4898 58.6091 36.4043 58.6091 36.3152V34.1789C57.5868 35.6916 56.0911 36.6479 54.4125 36.6479C51.3321 36.6479 48.8342 33.4023 48.8342 29.3987V22.4806C48.8342 22.3914 48.8696 22.3059 48.9326 22.2429C48.9955 22.1798 49.0809 22.1444 49.17 22.1444H49.9623C50.3998 22.1449 50.8193 22.3191 51.1286 22.6288C51.438 22.9386 51.612 23.3586 51.6124 23.7966V31.6207C51.6043 32.3186 51.7969 33.004 52.1671 33.5953C52.5374 34.1866 53.0698 34.6587 53.7007 34.9554C54.1286 35.1512 54.5933 35.2532 55.0638 35.2546C55.6241 35.2511 56.1747 35.1072 56.6652 34.8361C57.2633 34.5006 57.7599 34.01 58.1029 33.4157C58.4459 32.8215 58.6225 32.1456 58.6142 31.4593V23.8151C58.6142 23.3769 58.788 22.9567 59.0975 22.6468C59.4069 22.337 59.8267 22.1629 60.2643 22.1629H61.055C61.1434 22.1642 61.2278 22.2005 61.2897 22.2637C61.3516 22.327 61.3861 22.4122 61.3857 22.5007Z" fill="#057B83"/>
<path d="M44.4076 33.0897C43.977 33.5507 43.4574 33.9193 42.8803 34.1733C42.3032 34.4272 41.6806 34.5612 41.0502 34.5671C38.4013 34.5671 36.2425 32.2291 36.1267 29.2995H44.3723C44.6264 29.2992 44.8769 29.2401 45.1043 29.1269C45.3318 29.0137 45.5301 28.8494 45.6838 28.6469C45.8375 28.4444 45.9424 28.2091 45.9904 27.9593C46.0383 27.7096 46.0281 27.4521 45.9604 27.2069C45.121 24.2151 43.0428 21.9696 39.5445 22.1646C38.4141 22.2225 37.313 22.545 36.3296 23.1062C35.3462 23.6674 34.5079 24.4516 33.8821 25.3959C33.2562 26.3402 32.8602 27.4183 32.7258 28.5436C32.5914 29.6689 32.7224 30.8101 33.1082 31.8755C33.4941 32.9409 34.124 33.901 34.9475 34.6785C35.771 35.456 36.7651 36.0294 37.85 36.3526C38.9349 36.6758 40.0803 36.7398 41.1944 36.5394C42.3085 36.3391 43.3601 35.8801 44.2649 35.1991C44.8107 34.7909 45.2956 34.307 45.7052 33.762C45.8294 33.5939 45.9469 33.4259 46.0577 33.2578C46.1714 33.0718 46.2192 32.8528 46.1933 32.6363C46.1674 32.4198 46.0694 32.2183 45.915 32.0644C45.8524 32.0038 45.7688 31.97 45.6817 31.97C45.5946 31.97 45.511 32.0038 45.4484 32.0644L44.4076 33.0897ZM36.4222 27.1481C36.8015 25.0807 38.22 23.5462 39.9138 23.5462C40.08 23.5458 40.2458 23.5615 40.409 23.5932C41.9819 23.8773 43.2292 25.4976 43.4659 27.5515C43.4703 27.5983 43.4649 27.6454 43.4501 27.69C43.4352 27.7345 43.4112 27.7755 43.3796 27.8101C43.3479 27.8448 43.3094 27.8725 43.2664 27.8913C43.2235 27.9102 43.177 27.9198 43.1301 27.9196H36.6907C36.6443 27.9197 36.5983 27.9102 36.5557 27.8917C36.5132 27.8731 36.4749 27.846 36.4433 27.8118C36.4118 27.7777 36.3876 27.7374 36.3724 27.6935C36.3572 27.6495 36.3513 27.6029 36.355 27.5566C36.3768 27.412 36.397 27.2792 36.4222 27.1481Z" fill="#057B83"/>
<path d="M113.433 22.5007V36.3152C113.433 36.4043 113.398 36.4898 113.335 36.5528C113.272 36.6159 113.186 36.6513 113.097 36.6513H110.992C110.903 36.6513 110.818 36.6159 110.755 36.5528C110.692 36.4898 110.656 36.4043 110.656 36.3152V34.1839C109.634 35.6966 108.138 36.653 106.46 36.653C103.379 36.653 100.881 33.4074 100.881 29.4037V22.4856C100.881 22.3965 100.917 22.311 100.98 22.2479C101.043 22.1849 101.128 22.1494 101.217 22.1494H102.01C102.447 22.1494 102.867 22.3235 103.176 22.6334C103.486 22.9432 103.66 23.3635 103.66 23.8017V31.6241C103.652 32.3219 103.844 33.0074 104.214 33.5987C104.585 34.19 105.117 34.6621 105.748 34.9588C106.176 35.1548 106.641 35.2568 107.111 35.2579C107.671 35.2544 108.222 35.1105 108.712 34.8394C109.311 34.5058 109.808 34.0169 110.153 33.4242C110.497 32.8315 110.676 32.1568 110.67 31.4711V23.8218C110.67 23.3836 110.844 22.9634 111.153 22.6535C111.463 22.3437 111.882 22.1696 112.32 22.1696H113.111C113.196 22.1731 113.278 22.2093 113.338 22.2709C113.398 22.3325 113.432 22.4147 113.433 22.5007Z" fill="#057B83"/>
<path d="M127.984 33.0897C127.553 33.551 127.034 33.9198 126.457 34.1738C125.879 34.4278 125.257 34.5616 124.626 34.5671C121.977 34.5671 119.817 32.2291 119.701 29.2995H127.947C128.201 29.2998 128.452 29.2411 128.68 29.1281C128.908 29.0151 129.106 28.8509 129.26 28.6482C129.414 28.4456 129.519 28.2101 129.567 27.96C129.615 27.71 129.605 27.4522 129.536 27.2069C128.697 24.2135 126.619 21.9679 123.121 22.1646C121.99 22.2228 120.889 22.5455 119.906 23.1069C118.923 23.6683 118.085 24.4526 117.459 25.3969C116.834 26.3413 116.438 27.4193 116.304 28.5446C116.169 29.6698 116.3 30.8109 116.686 31.8762C117.072 32.9415 117.702 33.9014 118.526 34.6788C119.349 35.4562 120.343 36.0295 121.428 36.3526C122.513 36.6757 123.658 36.7397 124.772 36.5393C125.886 36.339 126.938 35.88 127.843 35.1991C128.384 34.7909 128.866 34.3089 129.275 33.7671C129.399 33.599 129.515 33.4309 129.625 33.2544C129.74 33.0689 129.788 32.8501 129.762 32.6337C129.736 32.4173 129.637 32.2161 129.483 32.0628C129.42 32.0022 129.336 31.9683 129.249 31.9683C129.162 31.9683 129.079 32.0022 129.016 32.0628L127.984 33.0897ZM119.998 27.1481C120.378 25.0824 121.798 23.5462 123.49 23.5462C123.659 23.5451 123.828 23.5609 123.993 23.5932C125.568 23.8773 126.815 25.4976 127.05 27.5532C127.055 27.5999 127.049 27.6471 127.035 27.6917C127.02 27.7362 126.996 27.7771 126.964 27.8118C126.932 27.8465 126.894 27.8742 126.851 27.893C126.808 27.9119 126.762 27.9215 126.715 27.9213H120.267C120.22 27.9215 120.174 27.9119 120.131 27.8933C120.089 27.8746 120.05 27.8473 120.019 27.813C119.987 27.7786 119.963 27.7381 119.948 27.694C119.933 27.6498 119.927 27.603 119.931 27.5566C119.953 27.417 119.973 27.2843 119.998 27.1532V27.1481Z" fill="#057B83"/>
<path d="M31.1226 35.779C30.7334 35.5025 30.4165 35.1362 30.1988 34.7111C29.9811 34.286 29.869 33.8145 29.872 33.3368C29.872 32.7872 29.872 21.3074 29.9039 20.7779C29.9128 19.7749 29.6849 18.784 29.2389 17.8858C28.7929 16.9877 28.1413 16.2077 27.3372 15.6095C27.2717 15.5608 27.2012 15.512 27.1324 15.4666C26.1453 14.7886 24.9914 14.3946 23.7963 14.3274C22.6011 14.2601 21.4104 14.5223 20.3537 15.0853C19.297 15.6483 18.4146 16.4906 17.8026 17.5206C17.1906 18.5507 16.8723 19.729 16.8824 20.9275V22.0167C16.8814 22.0916 16.8555 22.1641 16.8086 22.2226C16.7618 22.281 16.6968 22.3221 16.6239 22.3394C15.0768 22.7036 13.698 23.5806 12.7111 24.8279C11.7242 26.0753 11.1873 27.62 11.1873 29.2113C11.1873 30.8026 11.7242 32.3473 12.7111 33.5946C13.698 34.842 15.0768 35.719 16.6239 36.0832C16.6968 36.1004 16.7618 36.1416 16.8086 36.2C16.8555 36.2585 16.8814 36.331 16.8824 36.4059V40.5306C16.8824 40.6197 16.9178 40.7052 16.9808 40.7683C17.0437 40.8313 17.1291 40.8667 17.2182 40.8667H18.0071C18.2238 40.8667 18.4384 40.824 18.6386 40.741C18.8388 40.6579 19.0207 40.5362 19.174 40.3828C19.3272 40.2294 19.4487 40.0472 19.5317 39.8468C19.6146 39.6463 19.6573 39.4315 19.6573 39.2145V36.4126C19.6583 36.3377 19.6842 36.2652 19.7311 36.2067C19.7779 36.1483 19.8429 36.1072 19.9158 36.0899C21.4629 35.7257 22.8417 34.8488 23.8286 33.6014C24.8155 32.354 25.3524 30.8093 25.3524 29.218C25.3524 27.6267 24.8155 26.0821 23.8286 24.8347C22.8417 23.5873 21.4629 22.7103 19.9158 22.3461C19.8429 22.3289 19.7779 22.2878 19.7311 22.2293C19.6842 22.1708 19.6583 22.0983 19.6573 22.0234V19.5375C19.651 18.5628 20.0217 17.6235 20.6917 16.9164C21.3616 16.2092 22.2789 15.7891 23.2513 15.744H23.3856C23.8835 15.7412 24.3769 15.8382 24.8366 16.0294C25.2964 16.2207 25.7133 16.5022 26.0627 16.8573C26.4121 17.2125 26.6869 17.6341 26.8709 18.0973C27.0549 18.5605 27.1444 19.0559 27.1341 19.5543C27.1341 19.7577 27.1341 33.7335 27.1341 33.9284C27.1312 34.2866 27.1995 34.6418 27.335 34.9732C27.4706 35.3047 27.6707 35.6058 27.9236 35.8591C28.1766 36.1124 28.4773 36.3127 28.8084 36.4484C29.1394 36.5841 29.4941 36.6525 29.8518 36.6496C30.2053 36.6494 30.5554 36.5803 30.8825 36.4462C30.9547 36.416 31.0235 36.3824 31.0941 36.3488C31.1439 36.321 31.1858 36.2811 31.2159 36.2326C31.2461 36.1841 31.2634 36.1288 31.2662 36.0718C31.2691 36.0148 31.2574 35.958 31.2323 35.9068C31.2071 35.8555 31.1694 35.8116 31.1226 35.779ZM16.8824 33.9805C16.8806 34.0387 16.8638 34.0953 16.8336 34.145C16.8034 34.1947 16.7609 34.2356 16.7101 34.2639C16.6594 34.2922 16.6022 34.3068 16.5441 34.3063C16.4861 34.3059 16.4291 34.2903 16.3788 34.2612C14.9603 33.3469 13.9834 31.4308 13.9834 29.2189C13.9834 27.0069 14.9603 25.0891 16.3788 24.1765C16.4292 24.1473 16.4863 24.1318 16.5445 24.1314C16.6027 24.131 16.6601 24.1458 16.7108 24.1742C16.7616 24.2027 16.8042 24.2439 16.8342 24.2938C16.8643 24.3437 16.8809 24.4006 16.8824 24.4589V33.9805ZM22.3398 27.4692C22.4836 28.0429 22.5552 28.6324 22.553 29.2239C22.553 31.4392 21.5777 33.3536 20.1592 34.2663C20.1089 34.2954 20.052 34.3109 19.9939 34.3114C19.9358 34.3119 19.8786 34.2972 19.8279 34.269C19.7771 34.2407 19.7346 34.1997 19.7044 34.15C19.6742 34.1004 19.6574 34.0437 19.6556 33.9856V24.4555C19.6571 24.3972 19.6737 24.3404 19.7038 24.2905C19.7339 24.2406 19.7764 24.1994 19.8272 24.1709C19.878 24.1424 19.9353 24.1276 19.9935 24.128C20.0517 24.1284 20.1088 24.144 20.1592 24.1731C21.1966 24.837 21.9822 26.0304 22.3398 27.4708V27.4692Z" fill="#057B83"/>
<path d="M78.8774 15.4229C78.8776 16.2579 79.0061 17.0878 79.2584 17.8836L79.0201 17.8113C76.6364 17.0365 75.2095 14.638 75.4479 12.1403C75.4781 11.826 75.4932 11.5067 75.4932 11.1806C75.4975 10.2202 75.356 9.26466 75.0735 8.34681C75.0064 8.12158 74.9291 7.90476 74.8452 7.69466C75.0131 7.70474 75.1692 7.72155 75.332 7.74508C75.8248 7.81185 76.3104 7.92439 76.7824 8.08124C78.2142 8.56161 79.496 9.40809 80.5007 10.5369C79.8211 11.4602 79.3367 12.5125 79.0771 13.6295C78.9452 14.2182 78.8783 14.8196 78.8774 15.4229Z" fill="#B3158E"/>
<path d="M86.6966 7.58709C86.6042 7.80223 86.5203 8.02577 86.4465 8.2594C86.4229 8.33168 86.4011 8.40563 86.3793 8.47958C86.3407 8.61237 86.3038 8.74852 86.2719 8.88802C86.2719 8.88802 86.2719 8.88802 86.2719 8.89642C86.1997 9.20366 86.1437 9.51447 86.104 9.82758C86.0423 10.2765 86.0114 10.7291 86.0117 11.1823C86.0117 11.4932 86.0268 11.8008 86.0536 12.1C86.2534 14.285 85.2143 16.4297 83.2687 17.4449C83.22 17.4701 83.173 17.4953 83.1244 17.5172L83.069 17.5458L83.0471 17.5559L82.9766 17.5861C82.6322 17.744 82.2721 17.8651 81.9023 17.9475C81.859 17.9569 81.8181 17.9749 81.7818 18.0003C81.7455 18.0257 81.7145 18.058 81.6908 18.0954C81.6828 18.1043 81.6766 18.1145 81.6723 18.1256C81.6606 18.148 81.6516 18.1717 81.6454 18.1962C81.0968 20.6268 80.8956 23.123 81.0478 25.6102C82.0349 24.1109 83.2184 23.3512 84.9088 23.089C83.2402 24.3832 82.0282 26.5061 81.9124 28.6356C81.81 30.624 82.1104 32.8376 82.2766 34.8176C82.379 35.7571 81.6052 36.5505 80.6299 36.6127C80.3478 36.6311 79.6059 36.7639 79.6226 36.2765C79.6226 36.0899 79.6226 35.4848 79.6226 34.6646C79.6226 32.088 79.673 27.6053 79.6562 27.2019C79.6025 26.3716 79.067 24.553 78.3553 24.1882C75.0113 22.4705 75.2699 21.6049 74.8888 20.2939C76.8344 20.1947 78.56 21.3612 79.6428 23.2067C79.6931 22.0144 79.8187 20.8265 80.0188 19.6501C80.1027 19.1576 80.2068 18.6837 80.3159 18.208C80.3445 18.013 80.1481 17.8937 80.0893 17.7189C79.9366 17.3827 79.8996 16.9289 79.8778 16.4886C79.8778 16.4886 79.8778 16.4751 79.8778 16.4701C79.8778 16.349 79.8677 16.2297 79.861 16.1154C79.861 16.0347 79.8526 15.9473 79.8509 15.8751C79.8509 15.8515 79.8509 15.828 79.8509 15.8045V15.7809C79.8385 15.2526 79.8835 14.7246 79.9852 14.206C80.002 14.1237 80.0205 14.038 80.0406 13.9606C80.0406 13.9455 80.0406 13.9287 80.0524 13.9136C80.2781 13.0007 80.6672 12.1362 81.2006 11.3621L81.2191 11.3369C81.3332 11.1688 81.4558 11.0008 81.585 10.8411C81.585 10.8293 81.6035 10.8192 81.6136 10.8075C82.5176 9.7041 83.6598 8.82027 84.9541 8.22242C84.9894 8.20562 85.0246 8.18881 85.0599 8.17536C85.1807 8.11822 85.3033 8.06611 85.4275 8.01737L85.5534 7.96526C85.7358 7.89243 85.9221 7.8252 86.1124 7.76357C86.156 7.74844 86.2014 7.73332 86.2467 7.72155C86.3759 7.67449 86.5354 7.62911 86.6966 7.58709Z" fill="#B3158E"/>
<path d="M84.1937 7.55347C82.9562 8.11536 81.8527 8.93538 80.9572 9.95868C80.1003 8.81635 78.9739 7.90451 77.6788 7.30471C77.6323 7.28239 77.5915 7.24963 77.5597 7.20899C77.5279 7.16834 77.5058 7.1209 77.4953 7.07034C77.4847 7.01978 77.4859 6.96747 77.4988 6.91746C77.5117 6.86745 77.536 6.8211 77.5697 6.78199C78.6642 5.20877 80.5325 5.44744 81.6774 6.20884C81.7329 6.24793 81.78 6.29786 81.8158 6.35563C81.8515 6.41339 81.8753 6.47781 81.8856 6.545C81.9057 6.85931 81.763 7.19378 81.2997 6.99209C79.851 6.35843 79.1174 7.02738 79.4313 7.5249C79.5992 7.78542 79.9735 7.88459 80.2707 7.84761C80.8448 7.77702 81.6572 7.67953 82.2851 7.32825C82.4261 7.24925 82.5553 7.17697 82.6493 7.12151C82.8755 6.99109 83.0786 6.82412 83.2503 6.62735C83.6448 6.23909 84.0695 6.66937 84.3297 7.07276C84.3548 7.11263 84.3712 7.15733 84.3779 7.20396C84.3846 7.25058 84.3814 7.2981 84.3686 7.34342C84.3558 7.38875 84.3336 7.43087 84.3034 7.46705C84.2733 7.50324 84.2359 7.53268 84.1937 7.55347Z" fill="#B3158E"/>
</svg>
